<?xml version="1.0" standalone="no"?>
<!DOCTYPE svg PUBLIC "-//W3C//DTD SVG 20010904//EN"
 "http://www.w3.org/TR/2001/REC-SVG-20010904/DTD/svg10.dtd">
<svg version="1.0" xmlns="http://www.w3.org/2000/svg"
 width="700.000000pt" height="700.000000pt" viewBox="0 0 700.000000 700.000000"
 preserveAspectRatio="xMidYMid meet">
<metadata>
Created by potrace 1.11, written by Peter Selinger 2001-2013
</metadata>
<g transform="translate(0.000000,700.000000) scale(0.100000,-0.100000)"
fill="#000000" stroke="none">
<path d="M3378 6415 c-2 -1 -48 -5 -103 -9 -55 -3 -118 -9 -140 -12 -663 -91
-1233 -371 -1690 -829 -185 -185 -276 -299 -444 -560 -57 -87 -186 -357 -234
-488 -74 -199 -133 -434 -153 -600 -4 -28 -8 -54 -9 -57 -8 -13 -19 -227 -19
-360 0 -373 52 -665 181 -1014 344 -935 1165 -1641 2138 -1840 66 -14 143 -28
170 -31 28 -4 61 -9 75 -11 61 -10 206 -17 340 -18 137 0 346 10 359 18 3 2
35 7 70 10 36 4 67 8 70 10 3 2 27 7 52 10 58 8 257 59 363 93 169 54 433 173
556 248 67 42 175 110 185 117 6 4 48 36 95 70 47 34 87 65 90 68 3 3 34 29
70 59 101 84 287 277 377 392 344 436 534 883 617 1449 26 176 26 538 1 730
-13 91 -37 227 -50 280 -8 30 -16 66 -19 80 -10 55 -59 208 -102 322 -48 127
-176 392 -194 403 -6 3 -8 11 -5 16 4 5 1 9 -4 9 -6 0 -11 5 -11 11 0 16 -134
212 -224 328 -99 128 -320 354 -436 445 -47 37 -94 74 -105 83 -53 44 -262
177 -360 230 -353 188 -714 297 -1125 339 -62 6 -377 14 -382 9z m1869 -1172
c-3 -5 -16 -33 -30 -63 -50 -110 -100 -217 -153 -328 -30 -63 -54 -115 -54
-117 0 -1 -27 -60 -60 -129 -33 -70 -60 -128 -60 -130 0 -2 -28 -62 -61 -132
-34 -71 -75 -158 -91 -194 -17 -36 -45 -96 -63 -135 -18 -38 -45 -97 -60 -130
-15 -33 -52 -111 -81 -174 -30 -62 -54 -115 -54 -117 0 -2 -27 -59 -60 -128
-32 -69 -69 -147 -80 -173 -12 -26 -34 -75 -50 -108 -16 -33 -58 -121 -93
-196 -50 -106 -70 -139 -88 -144 -13 -5 -62 -26 -109 -48 -47 -21 -116 -54
-155 -72 -38 -18 -119 -56 -179 -84 -59 -28 -109 -51 -111 -51 -1 0 -61 -27
-131 -61 -71 -34 -176 -83 -234 -109 -100 -46 -164 -76 -365 -170 -49 -23
-119 -56 -155 -72 -147 -68 -208 -97 -265 -123 -33 -15 -111 -52 -174 -81 -62
-30 -114 -54 -116 -54 -2 0 -61 -27 -132 -61 -70 -33 -148 -70 -173 -81 -25
-11 -49 -23 -54 -26 -5 -3 -7 -1 -4 4 3 5 20 41 38 79 18 39 48 104 67 145 19
41 78 167 130 280 53 113 126 270 163 350 37 80 111 240 165 355 147 317 149
321 209 449 31 65 56 119 56 121 0 1 22 49 49 106 26 57 61 131 76 164 15 33
52 112 82 175 31 63 59 124 63 135 10 26 -45 -1 1040 503 190 88 381 177 425
197 44 21 107 50 140 65 33 15 94 44 136 63 42 20 146 68 230 107 85 40 188
88 229 107 94 45 194 91 198 92 2 1 1 -2 -1 -6z"/>
<path d="M3420 3813 c-157 -53 -241 -169 -236 -325 5 -128 67 -223 185 -280
37 -18 64 -23 131 -23 101 0 159 24 227 91 65 66 88 123 88 224 0 102 -21 157
-87 222 -65 65 -127 92 -218 94 -41 1 -82 0 -90 -3z"/>
</g>
</svg>
